<svg width="18" height="17" viewBox="0 0 18 17" fill="none" xmlns="http://www.w3.org/2000/svg">
<path d="M9.23893 0.351881C9.17496 0.290686 9.08984 0.256531 9.00131 0.256531C8.91278 0.256531 8.82767 0.290686 8.7637 0.351881L0.853149 7.9088C0.819554 7.94093 0.792827 7.97955 0.774585 8.02231C0.756342 8.06507 0.746964 8.11109 0.747017 8.15758L0.745728 15.25C0.745728 15.6147 0.890593 15.9644 1.14846 16.2223C1.40632 16.4801 1.75605 16.625 2.12073 16.625H6.25002C6.43236 16.625 6.60723 16.5526 6.73616 16.4236C6.86509 16.2947 6.93752 16.1198 6.93752 15.9375V10.0938C6.93752 10.0026 6.97374 9.91515 7.03821 9.85069C7.10267 9.78622 7.19011 9.75001 7.28127 9.75001H10.7188C10.8099 9.75001 10.8974 9.78622 10.9618 9.85069C11.0263 9.91515 11.0625 10.0026 11.0625 10.0938V15.9375C11.0625 16.1198 11.135 16.2947 11.2639 16.4236C11.3928 16.5526 11.5677 16.625 11.75 16.625H15.8776C16.2423 16.625 16.592 16.4801 16.8499 16.2223C17.1077 15.9644 17.2526 15.6147 17.2526 15.25V8.15758C17.2527 8.11109 17.2433 8.06507 17.225 8.02231C17.2068 7.97955 17.1801 7.94093 17.1465 7.9088L9.23893 0.351881Z" fill="black"/>
</svg>
