<svg width="15" height="15" viewBox="0 0 15 15" fill="none" xmlns="http://www.w3.org/2000/svg">
<path d="M7.49996 0.75C6.16495 0.75 4.85991 1.14588 3.74989 1.88757C2.63986 2.62927 1.7747 3.68347 1.26381 4.91686C0.752925 6.15026 0.619253 7.50745 0.879702 8.81681C1.14015 10.1262 1.78302 11.3289 2.72702 12.2729C3.67102 13.2169 4.87375 13.8598 6.18311 14.1202C7.49248 14.3807 8.84967 14.247 10.0831 13.7361C11.3165 13.2252 12.3707 12.3601 13.1124 11.25C13.854 10.14 14.2499 8.83498 14.2499 7.49996C14.2498 5.70979 13.5386 3.99298 12.2728 2.72714C11.0069 1.46131 9.29013 0.750114 7.49996 0.75V0.75Z" stroke="black" stroke-width="1.38" stroke-miterlimit="10"/>
</svg>
